<svg width="237" height="41" viewBox="0 0 237 41" fill="none" xmlns="http://www.w3.org/2000/svg">
<path d="M54.0087 36.6156L54.0087 20.751C54.0087 20.751 41.7705 22.3115 31.2334 27.5366C20.6962 22.3115 8.45805 20.751 8.45805 20.751L8.45805 36.6156C4.86693 37.4195 1.96095 38.3888 2.41136e-09 39.5C6.61524 37.4194 18.121 36.0245 31.2097 36.0245C44.2985 36.0245 55.8043 37.3958 62.4195 39.5C60.4822 38.3888 57.5998 37.4195 54.0087 36.6156Z" fill="#0B7077"/>
<path d="M11.7893 19.0487L11.7893 21.2948C16.1365 22.1223 24.0747 23.9665 31.2334 27.5366C22.7753 20.8928 11.7893 19.0487 11.7893 19.0487Z" fill="#0B7077"/>
<path d="M50.701 19.0487C50.701 19.0487 39.715 20.8928 31.257 27.5366C38.4156 23.9901 46.3539 22.1223 50.701 21.2948L50.701 19.0487Z" fill="#0B7077"/>
<path d="M31.257 19.2614C30.8081 20.2544 30.123 21.1292 29.3197 21.8149L31.2334 25.1486L33.1943 21.8149C32.3674 21.1292 31.7059 20.2544 31.257 19.2614Z" fill="#0B7077"/>
<path d="M25.4452 16.7789C26.721 16.7789 27.7841 15.7386 27.7841 14.4383C27.7841 13.1615 26.7446 12.0976 25.4452 12.0976C24.1694 12.0976 23.1062 13.1379 23.1062 14.4383C23.1062 15.7386 24.1457 16.7789 25.4452 16.7789ZM24.6655 12.8069C25.1617 12.8069 25.5633 13.2088 25.5633 13.7053C25.5633 14.2018 25.1617 14.6038 24.6655 14.6038C24.1694 14.6038 23.7677 14.2018 23.7677 13.7053C23.7677 13.2088 24.1694 12.8069 24.6655 12.8069Z" fill="#0B7077"/>
<path d="M34.7064 14.4383C34.7064 15.715 35.746 16.7789 37.0218 16.7789C38.2975 16.7789 39.3607 15.7386 39.3607 14.4383C39.3607 13.1615 38.3212 12.0976 37.0218 12.0976C35.7696 12.1212 34.7064 13.1615 34.7064 14.4383ZM37.3053 13.7053C37.3053 14.2018 36.9036 14.6038 36.4075 14.6038C35.9113 14.6038 35.5097 14.2018 35.5097 13.7053C35.5097 13.2088 35.9113 12.8069 36.4075 12.8069C36.9036 12.8069 37.3053 13.2088 37.3053 13.7053Z" fill="#0B7077"/>
<path d="M20.9798 19.025C22.1375 20.1599 23.7204 20.8455 25.4451 20.8455C27.9967 20.8455 30.2175 19.3324 31.257 17.1572C32.2729 19.3324 34.4938 20.8455 37.069 20.8455C38.8173 20.8455 40.3766 20.1362 41.5343 19.025C42.0304 19.7343 42.4557 20.4909 42.8101 21.2711C44.2513 20.7273 45.5743 20.3254 46.732 19.9944C45.9759 18.4339 44.7946 17.039 43.3062 15.8568C43.4007 15.4076 43.4716 14.9111 43.4716 14.4382C43.4716 13.4925 43.259 12.5941 42.8809 11.7665C42.4321 10.4425 41.7469 9.21308 40.8728 8.12549L40.8255 1.81277L35.5806 4.27166C34.2103 3.75151 32.7455 3.49143 31.257 3.49143C29.7686 3.49143 28.3038 3.75151 26.9335 4.27166L21.6649 1.81277L21.6177 8.12549C20.7672 9.21308 20.082 10.4189 19.6331 11.7193C19.2551 12.5468 19.0188 13.4689 19.0188 14.4382C19.0188 14.9347 19.0661 15.4076 19.1842 15.8568C17.6958 17.039 16.5381 18.4339 15.7821 19.9944C16.9161 20.3254 18.2628 20.7509 19.704 21.2711C20.0584 20.4909 20.4836 19.7343 20.9798 19.025ZM42.1013 14.4382C42.1013 17.2281 39.8332 19.4979 37.0454 19.4979C34.2575 19.4979 31.9894 17.2281 31.9894 14.4382C31.9894 11.6483 34.2575 9.37858 37.0454 9.37858C39.8332 9.40223 42.1013 11.672 42.1013 14.4382ZM31.2334 4.83909C34.4465 4.83909 37.3761 6.23404 39.3843 8.48014C38.6519 8.19642 37.8486 8.03092 37.0217 8.03092C34.4701 8.03092 32.2493 9.54408 31.2098 11.7193C30.1939 9.54408 27.973 8.03092 25.3978 8.03092C24.5709 8.03092 23.7676 8.19642 23.0589 8.48014C25.1143 6.23404 28.0203 4.83909 31.2334 4.83909ZM25.4451 9.40223C28.2329 9.40223 30.501 11.672 30.501 14.4619C30.501 17.2518 28.2329 19.5215 25.4451 19.5215C22.6572 19.5215 20.3891 17.2518 20.3891 14.4619C20.3891 11.672 22.6572 9.40223 25.4451 9.40223Z" fill="#0B7077"/>
<path d="M78.1694 11.6564H87.3194V12.2264H85.6694V32.0864H87.3194V32.6564H78.1694V32.0864H79.8194V12.2264H78.1694V11.6564ZM88.7135 11.6564H104.313L104.613 17.5964H104.073C103.233 15.5764 102.353 14.1964 101.433 13.4564C100.513 12.6964 99.1635 12.3164 97.3835 12.3164H96.3335V21.5864H97.3535C98.2935 21.5864 99.0835 21.2364 99.7235 20.5364C100.363 19.8164 100.813 18.8564 101.073 17.6564H101.523V26.5364H101.013C100.653 25.0364 100.163 23.9664 99.5435 23.3264C98.9435 22.6864 98.1135 22.3664 97.0535 22.3664H96.3335V31.9964H97.4735C99.3135 31.9964 100.873 31.4464 102.153 30.3464C103.453 29.2464 104.343 27.8364 104.823 26.1164H105.423L105.183 32.6564H88.7135V31.9964H90.4835V12.3164H88.7135V11.6564ZM107.434 11.6564H118.234V12.3164H115.054V31.9964H116.134C117.834 31.9964 119.184 31.4764 120.184 30.4364C121.204 29.3964 122.234 27.7964 123.274 25.6364H123.904L123.334 32.6564H107.434V31.9964H109.204V12.3164H107.434V11.6564ZM141.353 11.6564L141.653 19.1864H141.083C140.203 16.5264 139.423 14.7164 138.743 13.7564C138.063 12.7764 137.083 12.2864 135.803 12.2864H135.443V32.0264H137.993V32.6564H127.043V32.0264H129.593V12.2864H129.203C127.923 12.2864 126.933 12.7964 126.233 13.8164C125.533 14.8164 124.763 16.6064 123.923 19.1864H123.353L123.653 11.6564H141.353ZM151.593 32.3264C152.593 32.3264 153.473 32.0564 154.233 31.5164C155.013 30.9764 155.403 30.1664 155.403 29.0864C155.403 27.9864 154.983 27.1464 154.143 26.5664C153.323 25.9864 152.143 25.4864 150.603 25.0664C149.083 24.6264 147.973 24.2464 147.273 23.9264C146.593 23.6064 145.943 23.1864 145.323 22.6664C144.083 21.6264 143.463 20.0164 143.463 17.8364C143.463 16.0564 144.093 14.5264 145.353 13.2464C146.633 11.9664 148.373 11.3264 150.573 11.3264C151.633 11.3264 152.733 11.4864 153.873 11.8064C155.033 12.1064 155.753 12.2564 156.033 12.2564C156.313 12.2564 156.563 12.0564 156.783 11.6564H157.113L157.323 17.7164H156.843C155.883 15.9764 154.873 14.5864 153.813 13.5464C152.773 12.4864 151.633 11.9564 150.393 11.9564C149.173 11.9564 148.223 12.2464 147.543 12.8264C146.863 13.3864 146.523 14.1464 146.523 15.1064C146.523 16.0464 146.923 16.7764 147.723 17.2964C148.543 17.7964 149.543 18.2064 150.723 18.5264C151.903 18.8464 152.673 19.0664 153.033 19.1864C153.413 19.3064 153.873 19.4764 154.413 19.6964C154.973 19.8964 155.423 20.1164 155.763 20.3564C156.123 20.5764 156.493 20.8664 156.873 21.2264C157.273 21.5664 157.583 21.9464 157.803 22.3664C158.343 23.3264 158.613 24.4664 158.613 25.7864C158.613 27.9464 157.933 29.6864 156.573 31.0064C155.233 32.3064 153.463 32.9564 151.263 32.9564C150.123 32.9564 148.813 32.8064 147.333 32.5064C145.873 32.2064 145.063 32.0564 144.903 32.0564C144.623 32.0564 144.353 32.3564 144.093 32.9564H143.673L143.373 25.8164H143.883C144.763 27.5564 145.883 29.0764 147.243 30.3764C148.623 31.6764 150.073 32.3264 151.593 32.3264ZM181.438 19.9364C181.438 22.0164 180.688 23.8064 179.188 25.3064C177.708 26.7864 175.928 27.5264 173.848 27.5264H171.328V30.1064C171.328 30.8064 171.078 31.4064 170.578 31.9064C170.078 32.4064 169.478 32.6564 168.778 32.6564C168.058 32.6564 167.448 32.4064 166.948 31.9064C166.468 31.4064 166.228 30.8064 166.228 30.1064V19.9364C166.228 17.8364 166.968 16.0464 168.448 14.5664C169.948 13.0664 171.748 12.3164 173.848 12.3164C175.928 12.3164 177.708 13.0664 179.188 14.5664C180.688 16.0464 181.438 17.8364 181.438 19.9364ZM176.338 19.9364C176.338 19.2364 176.088 18.6464 175.588 18.1664C175.108 17.6664 174.528 17.4164 173.848 17.4164C173.148 17.4164 172.548 17.6664 172.048 18.1664C171.568 18.6464 171.328 19.2364 171.328 19.9364V22.4264H173.848C174.528 22.4264 175.108 22.1864 175.588 21.7064C176.088 21.2064 176.338 20.6164 176.338 19.9364ZM196.143 19.9664C196.143 20.6664 195.893 21.2664 195.393 21.7664C194.893 22.2664 194.293 22.5164 193.593 22.5164H189.843C189.143 22.5164 188.543 22.7664 188.043 23.2664C187.563 23.7464 187.323 24.3364 187.323 25.0364V30.1064C187.323 30.8064 187.073 31.4064 186.573 31.9064C186.073 32.4064 185.473 32.6564 184.773 32.6564C184.053 32.6564 183.443 32.4064 182.943 31.9064C182.463 31.4064 182.223 30.8064 182.223 30.1064V25.0364C182.223 22.9364 182.963 21.1464 184.443 19.6664C185.943 18.1664 187.743 17.4164 189.843 17.4164H193.593C194.293 17.4164 194.893 17.6664 195.393 18.1664C195.893 18.6664 196.143 19.2664 196.143 19.9664ZM212.381 30.1064C212.381 30.8064 212.131 31.4064 211.631 31.9064C211.131 32.4064 210.531 32.6564 209.831 32.6564H204.821C202.721 32.6564 200.921 31.9164 199.421 30.4364C197.941 28.9364 197.201 27.1364 197.201 25.0364C197.201 22.9364 197.941 21.1464 199.421 19.6664C200.921 18.1664 202.721 17.4164 204.821 17.4164C206.601 17.4164 208.171 17.9664 209.531 19.0664C210.911 20.1664 211.811 21.5864 212.231 23.3264C212.271 23.4464 212.291 23.6364 212.291 23.8964C212.291 24.5964 212.041 25.1964 211.541 25.6964C211.041 26.1964 210.441 26.4464 209.741 26.4464C208.461 26.4464 207.621 25.7964 207.221 24.4964C206.841 23.1964 206.041 22.5464 204.821 22.5464C204.121 22.5464 203.521 22.7964 203.021 23.2964C202.541 23.7764 202.301 24.3564 202.301 25.0364C202.301 25.7164 202.541 26.3064 203.021 26.8064C203.521 27.3064 204.121 27.5564 204.821 27.5564H209.831C210.531 27.5564 211.131 27.8064 211.631 28.3064C212.131 28.8064 212.381 29.4064 212.381 30.1064ZM228.845 25.0364C228.845 27.1364 228.105 28.9264 226.625 30.4064C225.145 31.8864 223.355 32.6264 221.255 32.6264H218.735V35.2064C218.735 35.9064 218.485 36.5064 217.985 37.0064C217.485 37.5064 216.885 37.7564 216.185 37.7564C215.485 37.7564 214.885 37.5064 214.385 37.0064C213.885 36.5064 213.635 35.9064 213.635 35.2064V25.0364C213.635 22.9364 214.375 21.1464 215.855 19.6664C217.355 18.1664 219.155 17.4164 221.255 17.4164C223.355 17.4164 225.145 18.1664 226.625 19.6664C228.105 21.1464 228.845 22.9364 228.845 25.0364ZM223.745 25.0364C223.745 24.3364 223.495 23.7464 222.995 23.2664C222.515 22.7664 221.935 22.5164 221.255 22.5164C220.575 22.5164 219.985 22.7664 219.485 23.2664C218.985 23.7464 218.735 24.3364 218.735 25.0364V27.5264H221.255C221.955 27.5264 222.545 27.2864 223.025 26.8064C223.505 26.3064 223.745 25.7164 223.745 25.0364ZM235.291 30.1064C235.291 30.8064 235.031 31.4064 234.511 31.9064C234.011 32.4064 233.421 32.6564 232.741 32.6564C232.021 32.6564 231.411 32.4064 230.911 31.9064C230.431 31.4064 230.191 30.8064 230.191 30.1064C230.191 29.4064 230.431 28.8064 230.911 28.3064C231.411 27.8064 232.021 27.5564 232.741 27.5564C233.441 27.5564 234.041 27.8064 234.541 28.3064C235.041 28.8064 235.291 29.4064 235.291 30.1064Z" fill="#0B7077"/>
</svg>
